<svg width="21" height="21" viewBox="0 0 21 21" fill="none" xmlns="http://www.w3.org/2000/svg">
<path d="M6.92793 11.9344C6.68686 11.9344 6.48465 11.8528 6.32129 11.6894C6.15794 11.5261 6.07654 11.3241 6.07711 11.0836C6.07711 10.8426 6.15879 10.6403 6.32214 10.477C6.4855 10.3136 6.68743 10.2322 6.92793 10.2328C7.16899 10.2328 7.37121 10.3145 7.53456 10.4778C7.69792 10.6412 7.77931 10.8431 7.77875 11.0836C7.77875 11.3247 7.69707 11.5269 7.53371 11.6903C7.37035 11.8536 7.16843 11.935 6.92793 11.9344ZM10.3312 11.9344C10.0901 11.9344 9.88793 11.8528 9.72457 11.6894C9.56121 11.5261 9.47982 11.3241 9.48039 11.0836C9.48039 10.8426 9.56207 10.6403 9.72542 10.477C9.88878 10.3136 10.0907 10.2322 10.3312 10.2328C10.5723 10.2328 10.7745 10.3145 10.9378 10.4778C11.1012 10.6412 11.1826 10.8431 11.182 11.0836C11.182 11.3247 11.1003 11.5269 10.937 11.6903C10.7736 11.8536 10.5717 11.935 10.3312 11.9344ZM13.7345 11.9344C13.4934 11.9344 13.2912 11.8528 13.1279 11.6894C12.9645 11.5261 12.8831 11.3241 12.8837 11.0836C12.8837 10.8426 12.9653 10.6403 13.1287 10.477C13.2921 10.3136 13.494 10.2322 13.7345 10.2328C13.9756 10.2328 14.1778 10.3145 14.3411 10.4778C14.5045 10.6412 14.5859 10.8431 14.5853 11.0836C14.5853 11.3247 14.5036 11.5269 14.3403 11.6903C14.1769 11.8536 13.975 11.935 13.7345 11.9344ZM4.37547 18.741C3.90752 18.741 3.50678 18.5742 3.17326 18.2407C2.83974 17.9072 2.67326 17.5067 2.67383 17.0394V5.12789C2.67383 4.65994 2.84059 4.2592 3.17411 3.92568C3.50763 3.59216 3.90809 3.42568 4.37547 3.42625H5.22629V1.72461H6.92793V3.42625H13.7345V1.72461H15.4361V3.42625H16.2869C16.7549 3.42625 17.1556 3.59301 17.4892 3.92653C17.8227 4.26005 17.9892 4.6605 17.9886 5.12789V17.0394C17.9886 17.5073 17.8218 17.9081 17.4883 18.2416C17.1548 18.5751 16.7543 18.7416 16.2869 18.741H4.37547ZM4.37547 17.0394H16.2869V8.53117H4.37547V17.0394ZM4.37547 6.82953H16.2869V5.12789H4.37547V6.82953Z" fill="#333333"/>
</svg>
