<svg width="21" height="22" viewBox="0 0 21 22" fill="none" xmlns="http://www.w3.org/2000/svg">
<g id="mingcute:right-line" clip-path="url(#clip0_207_6153)">
<g id="Group">
<path id="Vector" fill-rule="evenodd" clip-rule="evenodd" d="M13.7378 10.342C13.8973 10.5015 13.9869 10.7179 13.9869 10.9435C13.9869 11.1691 13.8973 11.3855 13.7378 11.545L8.92472 16.3581C8.84623 16.4394 8.75235 16.5042 8.64855 16.5488C8.54474 16.5934 8.4331 16.6168 8.32013 16.6178C8.20716 16.6188 8.09512 16.5973 7.99056 16.5545C7.886 16.5117 7.791 16.4485 7.71111 16.3687C7.63123 16.2888 7.56805 16.1938 7.52527 16.0892C7.48249 15.9846 7.46096 15.8726 7.46195 15.7596C7.46293 15.6467 7.4864 15.535 7.53099 15.4312C7.57558 15.3274 7.6404 15.2335 7.72166 15.155L11.9332 10.9435L7.72166 6.73193C7.56668 6.57147 7.48092 6.35655 7.48286 6.13347C7.48479 5.91038 7.57427 5.69699 7.73202 5.53924C7.88977 5.38149 8.10317 5.29201 8.32625 5.29007C8.54933 5.28813 8.76425 5.37389 8.92472 5.52887L13.7378 10.342Z" fill="#333333"/>
</g>
</g>
<defs>
<clipPath id="clip0_207_6153">
<rect width="20.4197" height="20.4197" fill="white" transform="translate(0.373779 0.733398)"/>
</clipPath>
</defs>
</svg>
