<svg width="21" height="21" viewBox="0 0 21 21" fill="none" xmlns="http://www.w3.org/2000/svg">
<g id="mingcute:transfer-line" clip-path="url(#clip0_207_6169)">
<g id="Group">
<path id="Vector" d="M17.1378 11.9866C17.3547 11.9868 17.5632 12.0699 17.7209 12.2187C17.8786 12.3676 17.9735 12.5711 17.9862 12.7876C17.9989 13.004 17.9285 13.2172 17.7893 13.3835C17.6501 13.5498 17.4527 13.6567 17.2373 13.6823L17.1378 13.6882H5.57856L7.52949 15.6392C7.68208 15.7923 7.77067 15.9977 7.77727 16.2138C7.78387 16.4299 7.70798 16.6403 7.56501 16.8025C7.42205 16.9646 7.22273 17.0662 7.00753 17.0867C6.79234 17.1072 6.57742 17.0451 6.40641 16.9128L6.32643 16.8422L3.06779 13.5836C2.502 13.0186 2.86445 12.0666 3.63188 11.9917L3.72973 11.9866H17.1378ZM13.133 3.72769C13.2795 3.5812 13.4744 3.4932 13.6812 3.48019C13.888 3.46719 14.0924 3.53008 14.2561 3.65707L14.336 3.72769L17.5947 6.98633C18.1605 7.55127 17.798 8.50334 17.0306 8.57821L16.9327 8.58332H3.52468C3.30783 8.58308 3.09924 8.50004 2.94156 8.35117C2.78387 8.2023 2.68898 7.99884 2.67627 7.78236C2.66356 7.56587 2.73399 7.35271 2.87318 7.18641C3.01237 7.02012 3.2098 6.91324 3.42514 6.88763L3.52468 6.88168H15.0839L13.133 4.93075C12.9735 4.77119 12.8839 4.55482 12.8839 4.32922C12.8839 4.10361 12.9735 3.88724 13.133 3.72769Z" fill="#333333"/>
</g>
</g>
<defs>
<clipPath id="clip0_207_6169">
<rect width="20.4197" height="20.4197" fill="white" transform="translate(0.121338 0.0742188)"/>
</clipPath>
</defs>
</svg>
