<svg width="33" height="33" viewBox="0 0 33 33" fill="none" xmlns="http://www.w3.org/2000/svg">
<path fill-rule="evenodd" clip-rule="evenodd" d="M19.6793 15.8453H23.354C23.9111 15.8453 24.3489 15.3847 24.3489 14.8292C24.3489 14.2601 23.9111 13.813 23.354 13.813H19.6793C19.1221 13.813 18.6843 14.2601 18.6843 14.8292C18.6843 15.3847 19.1221 15.8453 19.6793 15.8453ZM27.7184 8.80121C28.5276 8.80121 29.0582 9.08574 29.5889 9.70898C30.1195 10.3322 30.2124 11.2264 30.093 12.038L28.8327 20.9259C28.5939 22.6344 27.1612 23.8931 25.4764 23.8931H11.0031C9.23874 23.8931 7.77947 22.5125 7.63355 20.7241L6.41307 5.95463L4.40989 5.60237C3.87925 5.50753 3.5078 4.97913 3.60066 4.43718C3.69352 3.88304 4.2109 3.51587 4.75481 3.59852L7.91877 4.08491C8.36981 4.16756 8.70146 4.54557 8.74126 5.00622L8.99332 8.04113C9.03312 8.47604 9.37803 8.80121 9.80255 8.80121H27.7184ZM10.7909 26.0342C9.67657 26.0342 8.77447 26.9555 8.77447 28.0936C8.77447 29.2181 9.67657 30.1394 10.7909 30.1394C11.892 30.1394 12.7941 29.2181 12.7941 28.0936C12.7941 26.9555 11.892 26.0342 10.7909 26.0342ZM25.7152 26.0342C24.6009 26.0342 23.6988 26.9555 23.6988 28.0936C23.6988 29.2181 24.6009 30.1394 25.7152 30.1394C26.8163 30.1394 27.7184 29.2181 27.7184 28.0936C27.7184 26.9555 26.8163 26.0342 25.7152 26.0342Z" fill="#32A7E2"/>
</svg>
