<svg width="30" height="30" viewBox="0 0 30 30" fill="none" xmlns="http://www.w3.org/2000/svg">
<path d="M26.0363 16.0763C26.25 15.56 26.25 14.9037 26.25 13.5938C26.25 12.2838 26.25 11.6275 26.0363 11.1112C25.8949 10.7699 25.6877 10.4598 25.4265 10.1985C25.1652 9.9373 24.8551 9.73009 24.5138 9.58875C23.9975 9.375 23.3412 9.375 22.0312 9.375H13.875C12.3 9.375 11.5125 9.375 10.9113 9.68125C10.3816 9.95097 9.95097 10.3816 9.68125 10.9113C9.375 11.5113 9.375 12.2988 9.375 13.875V22.0312C9.375 23.3412 9.375 23.9975 9.58875 24.5138C9.875 25.2025 10.4225 25.7513 11.1112 26.0363C11.6275 26.25 12.2838 26.25 13.5938 26.25C14.9037 26.25 15.56 26.25 16.0763 26.0363M26.0363 16.0763C25.8949 16.4176 25.6877 16.7277 25.4265 16.989C25.1652 17.2502 24.8551 17.4574 24.5138 17.5988C23.9975 17.8125 23.3412 17.8125 22.0312 17.8125C20.7213 17.8125 20.065 17.8125 19.5487 18.0262C19.2074 18.1676 18.8973 18.3748 18.636 18.636C18.3748 18.8973 18.1676 19.2074 18.0262 19.5487C17.8125 20.065 17.8125 20.7213 17.8125 22.0312C17.8125 23.3412 17.8125 23.9975 17.5988 24.5138C17.4574 24.8551 17.2502 25.1652 16.989 25.4265C16.7277 25.6877 16.4176 25.8949 16.0763 26.0363M26.0363 16.0763C25.364 18.395 24.1272 20.5108 22.4365 22.2341C20.7459 23.9575 18.6542 25.2347 16.3488 25.9512L16.0763 26.0363M20.625 9.375V8.25C20.625 6.675 20.625 5.8875 20.3187 5.28625C20.0493 4.75677 19.6192 4.32619 19.09 4.05625C18.4875 3.75 17.7 3.75 16.125 3.75H8.25C6.675 3.75 5.8875 3.75 5.28625 4.05625C4.75658 4.32597 4.32597 4.75658 4.05625 5.28625C3.75 5.88625 3.75 6.67375 3.75 8.25V16.125C3.75 17.7 3.75 18.4875 4.05625 19.0887C4.32625 19.6187 4.75625 20.0487 5.28625 20.3187C5.88625 20.625 6.675 20.625 8.25125 20.625H9.375" stroke="#7F7F7F" stroke-width="1.5" stroke-linecap="round" stroke-linejoin="round"/>
</svg>
