<svg width="47" height="93" viewBox="0 0 47 93" fill="none" xmlns="http://www.w3.org/2000/svg">
<path fill-rule="evenodd" clip-rule="evenodd" d="M0 0L20.7619 12.0368V25.4111L11.7184 20.2524V33.3082L23.3094 39.9954L11.7184 46.8098L0 40.059V0ZM17.5775 73.4946L34.4546 63.241L34.4658 63.261C34.482 63.2264 34.4977 63.1916 34.5128 63.1565C34.7992 62.4901 34.8681 61.7545 34.7108 61.0427C34.5534 60.3308 34.1769 59.6748 33.6288 59.1574L42.1722 51.0922C44.4447 53.2372 46.0059 55.9574 46.6583 58.9088C47.3106 61.8603 47.025 64.9103 45.8373 67.6733C44.7338 70.2408 42.8975 72.4532 40.5351 74.072L40.5685 74.1314L17.5775 87.1236V73.4946Z" fill="#6A8F9F"/>
<path fill-rule="evenodd" clip-rule="evenodd" d="M23.8809 13.4414L23.8435 27.4536L34.9975 33.9105C35.0301 34.0676 35.0527 34.2268 35.0649 34.3874C35.1309 35.2531 34.8922 36.1094 34.3858 36.8227C34.0258 37.33 33.5449 37.7447 32.9848 38.0373C32.4517 38.1684 31.9283 38.3777 31.4305 38.6695L2.89431 55.3927C0.808637 56.615 -0.234454 58.9352 0.0686883 61.19C0.0234598 61.485 0 61.7872 0 62.0949V86.8054C0 90.0765 2.65176 92.7282 5.92288 92.7282C9.194 92.7282 11.8458 90.0765 11.8458 86.8054V63.6335L37.3137 48.7084C37.4151 48.649 37.5141 48.5869 37.6106 48.5224C40.3362 47.3967 42.6693 45.5631 44.3338 43.2181C46.2908 40.461 47.2136 37.1517 46.9584 33.8057C46.7033 30.4597 45.2844 27.2649 42.923 24.719C42.6777 24.4546 42.4238 24.1988 42.1616 23.9518C41.7527 23.3868 41.2145 22.9015 40.5605 22.5446L40.023 22.2513C39.2004 21.7022 38.3269 21.2254 37.4138 20.8272L23.8809 13.4414Z" fill="#091F8E"/>
</svg>
