<svg width="156" height="35" viewBox="0 0 156 35" fill="none" xmlns="http://www.w3.org/2000/svg">
<path d="M18.104 10.768C18.104 12.0693 17.8053 13.264 17.208 14.352C16.6107 15.4187 15.6933 16.2827 14.456 16.944C13.2187 17.6053 11.6827 17.936 9.848 17.936H6.456V26H0.984V3.536H9.848C11.64 3.536 13.1547 3.84533 14.392 4.464C15.6293 5.08267 16.5573 5.936 17.176 7.024C17.7947 8.112 18.104 9.36 18.104 10.768ZM9.432 13.584C10.4773 13.584 11.256 13.3387 11.768 12.848C12.28 12.3573 12.536 11.664 12.536 10.768C12.536 9.872 12.28 9.17867 11.768 8.688C11.256 8.19733 10.4773 7.952 9.432 7.952H6.456V13.584H9.432ZM19.8648 17.04C19.8648 15.2053 20.2061 13.5947 20.8888 12.208C21.5928 10.8213 22.5421 9.75467 23.7368 9.008C24.9314 8.26133 26.2648 7.888 27.7368 7.888C28.9954 7.888 30.0941 8.144 31.0328 8.656C31.9928 9.168 32.7288 9.84 33.2408 10.672V8.144H38.7128V26H33.2408V23.472C32.7074 24.304 31.9608 24.976 31.0008 25.488C30.0621 26 28.9634 26.256 27.7048 26.256C26.2541 26.256 24.9314 25.8827 23.7368 25.136C22.5421 24.368 21.5928 23.2907 20.8888 21.904C20.2061 20.496 19.8648 18.8747 19.8648 17.04ZM33.2408 17.072C33.2408 15.7067 32.8568 14.6293 32.0888 13.84C31.3421 13.0507 30.4248 12.656 29.3368 12.656C28.2488 12.656 27.3208 13.0507 26.5528 13.84C25.8061 14.608 25.4328 15.6747 25.4328 17.04C25.4328 18.4053 25.8061 19.4933 26.5528 20.304C27.3208 21.0933 28.2488 21.488 29.3368 21.488C30.4248 21.488 31.3421 21.0933 32.0888 20.304C32.8568 19.5147 33.2408 18.4373 33.2408 17.072ZM60.9115 8.144L49.7115 34.48H43.8235L47.9195 25.392L40.6555 8.144H46.7675L50.8955 19.312L54.9915 8.144H60.9115ZM70.1543 26.256C68.5969 26.256 67.2103 25.9893 65.9943 25.456C64.7783 24.9227 63.8183 24.1973 63.1143 23.28C62.4103 22.3413 62.0156 21.296 61.9303 20.144H67.3383C67.4023 20.7627 67.6903 21.264 68.2023 21.648C68.7143 22.032 69.3436 22.224 70.0903 22.224C70.7729 22.224 71.2956 22.096 71.6583 21.84C72.0423 21.5627 72.2343 21.2107 72.2343 20.784C72.2343 20.272 71.9676 19.8987 71.4343 19.664C70.9009 19.408 70.0369 19.1307 68.8423 18.832C67.5623 18.5333 66.4956 18.224 65.6423 17.904C64.7889 17.5627 64.0529 17.04 63.4343 16.336C62.8156 15.6107 62.5063 14.64 62.5063 13.424C62.5063 12.4 62.7836 11.472 63.3383 10.64C63.9143 9.78667 64.7463 9.11467 65.8343 8.624C66.9436 8.13333 68.2556 7.888 69.7703 7.888C72.0103 7.888 73.7703 8.44267 75.0503 9.552C76.3516 10.6613 77.0983 12.1333 77.2903 13.968H72.2343C72.1489 13.3493 71.8716 12.8587 71.4023 12.496C70.9543 12.1333 70.3569 11.952 69.6103 11.952C68.9703 11.952 68.4796 12.08 68.1383 12.336C67.7969 12.5707 67.6263 12.9013 67.6263 13.328C67.6263 13.84 67.8929 14.224 68.4263 14.48C68.9809 14.736 69.8343 14.992 70.9863 15.248C72.3089 15.5893 73.3863 15.9307 74.2183 16.272C75.0503 16.592 75.7756 17.1253 76.3943 17.872C77.0343 18.5973 77.3649 19.5787 77.3863 20.816C77.3863 21.8613 77.0876 22.8 76.4903 23.632C75.9143 24.4427 75.0716 25.0827 73.9623 25.552C72.8743 26.0213 71.6049 26.256 70.1543 26.256ZM90.686 21.36V26H87.902C85.918 26 84.3713 25.52 83.262 24.56C82.1527 23.5787 81.598 21.9893 81.598 19.792V12.688H79.422V8.144H81.598V3.792H87.07V8.144H90.654V12.688H87.07V19.856C87.07 20.3893 87.198 20.7733 87.454 21.008C87.71 21.2427 88.1367 21.36 88.734 21.36H90.686ZM99.206 11.12C99.846 10.1387 100.646 9.37067 101.606 8.816C102.566 8.24 103.633 7.952 104.806 7.952V13.744H103.302C101.937 13.744 100.913 14.0427 100.23 14.64C99.5473 15.216 99.206 16.24 99.206 17.712V26H93.734V8.144H99.206V11.12ZM110.174 6.288C109.214 6.288 108.424 6.01067 107.806 5.456C107.208 4.88 106.91 4.176 106.91 3.344C106.91 2.49067 107.208 1.78667 107.806 1.232C108.424 0.655998 109.214 0.367998 110.174 0.367998C111.112 0.367998 111.88 0.655998 112.478 1.232C113.096 1.78667 113.406 2.49067 113.406 3.344C113.406 4.176 113.096 4.88 112.478 5.456C111.88 6.01067 111.112 6.288 110.174 6.288ZM112.894 8.144V26H107.422V8.144H112.894ZM115.771 17.04C115.771 15.2053 116.112 13.5947 116.795 12.208C117.499 10.8213 118.448 9.75467 119.643 9.008C120.838 8.26133 122.171 7.888 123.643 7.888C124.816 7.888 125.883 8.13333 126.843 8.624C127.824 9.11467 128.592 9.776 129.147 10.608V2.32H134.619V26H129.147V23.44C128.635 24.2933 127.899 24.976 126.939 25.488C126 26 124.902 26.256 123.643 26.256C122.171 26.256 120.838 25.8827 119.643 25.136C118.448 24.368 117.499 23.2907 116.795 21.904C116.112 20.496 115.771 18.8747 115.771 17.04ZM129.147 17.072C129.147 15.7067 128.763 14.6293 127.995 13.84C127.248 13.0507 126.331 12.656 125.243 12.656C124.155 12.656 123.227 13.0507 122.459 13.84C121.712 14.608 121.339 15.6747 121.339 17.04C121.339 18.4053 121.712 19.4933 122.459 20.304C123.227 21.0933 124.155 21.488 125.243 21.488C126.331 21.488 127.248 21.0933 127.995 20.304C128.763 19.5147 129.147 18.4373 129.147 17.072ZM155.41 16.784C155.41 17.296 155.378 17.8293 155.314 18.384H142.93C143.015 19.4933 143.367 20.3467 143.986 20.944C144.626 21.52 145.404 21.808 146.322 21.808C147.687 21.808 148.636 21.232 149.17 20.08H154.994C154.695 21.2533 154.151 22.3093 153.362 23.248C152.594 24.1867 151.623 24.9227 150.45 25.456C149.276 25.9893 147.964 26.256 146.514 26.256C144.764 26.256 143.207 25.8827 141.842 25.136C140.476 24.3893 139.41 23.3227 138.642 21.936C137.874 20.5493 137.49 18.928 137.49 17.072C137.49 15.216 137.863 13.5947 138.61 12.208C139.378 10.8213 140.444 9.75467 141.81 9.008C143.175 8.26133 144.743 7.888 146.514 7.888C148.242 7.888 149.778 8.25067 151.122 8.976C152.466 9.70133 153.511 10.736 154.258 12.08C155.026 13.424 155.41 14.992 155.41 16.784ZM149.81 15.344C149.81 14.4053 149.49 13.6587 148.85 13.104C148.21 12.5493 147.41 12.272 146.45 12.272C145.532 12.272 144.754 12.5387 144.114 13.072C143.495 13.6053 143.111 14.3627 142.962 15.344H149.81Z" fill="#7F7F7F"/>
</svg>
