<svg xmlns="http://www.w3.org/2000/svg" width="12" height="12" viewBox="0 0 12 12" fill="none">
  <g clip-path="url(#clip0_229_3644)">
    <path fill-rule="evenodd" clip-rule="evenodd" d="M10.5 3.375V10.5C10.5 10.8978 10.342 11.2794 10.0607 11.5607C9.77936 11.842 9.39782 12 9 12H8.25V11.25H9C9.19891 11.25 9.38968 11.171 9.53033 11.0303C9.67098 10.8897 9.75 10.6989 9.75 10.5V3.375H8.25C7.95163 3.375 7.66548 3.25647 7.4545 3.0455C7.24353 2.83452 7.125 2.54837 7.125 2.25V0.75H3C2.80109 0.75 2.61032 0.829018 2.46967 0.96967C2.32902 1.11032 2.25 1.30109 2.25 1.5V8.25H1.5V1.5C1.5 1.10218 1.65804 0.720644 1.93934 0.43934C2.22064 0.158035 2.60218 0 3 0L7.125 0L10.5 3.375ZM4.854 11.4675C4.80423 11.3619 4.77594 11.2474 4.77075 11.1307H5.3445C5.35483 11.1892 5.37707 11.245 5.40984 11.2945C5.44261 11.3441 5.48521 11.3864 5.535 11.4188C5.5875 11.4555 5.6505 11.484 5.7225 11.5042C5.79375 11.5252 5.874 11.535 5.96175 11.535C6.08475 11.535 6.18825 11.5178 6.2715 11.4825C6.34799 11.4539 6.41446 11.4036 6.46275 11.3377C6.50562 11.2734 6.52785 11.1975 6.5265 11.1202C6.52862 11.0732 6.51929 11.0264 6.4993 10.9838C6.47931 10.9412 6.44926 10.9042 6.41175 10.8758C6.336 10.8158 6.2205 10.7677 6.06525 10.731L5.601 10.6237C5.45814 10.5935 5.32144 10.5392 5.19675 10.4633C5.0868 10.3957 4.99613 10.3009 4.9335 10.188C4.8697 10.067 4.83794 9.93173 4.84125 9.795C4.84125 9.612 4.8885 9.45225 4.98375 9.31575C5.079 9.18 5.211 9.07425 5.379 8.99925C5.54775 8.92425 5.742 8.8875 5.96175 8.8875C6.1905 8.8875 6.38475 8.925 6.54675 9.0015C6.70875 9.078 6.834 9.18075 6.92175 9.309C7.01175 9.4365 7.06125 9.57825 7.07175 9.7335H6.50925C6.49641 9.66233 6.46541 9.59568 6.41925 9.54C6.36971 9.48009 6.30605 9.43344 6.234 9.40425C6.14621 9.36848 6.05202 9.35112 5.95725 9.35325C5.7945 9.35325 5.66625 9.39075 5.5725 9.46725C5.52854 9.50109 5.49315 9.54478 5.46918 9.5948C5.44521 9.64483 5.43333 9.69979 5.4345 9.75525C5.4345 9.846 5.4705 9.92025 5.54175 9.98025C5.63157 10.0468 5.73551 10.0917 5.8455 10.1115L6.3105 10.2188C6.47325 10.2563 6.615 10.3088 6.735 10.377C6.85072 10.4402 6.94773 10.5328 7.01625 10.6455C7.08375 10.7565 7.1175 10.8967 7.1175 11.0655C7.1175 11.2507 7.07025 11.415 6.9765 11.5575C6.87666 11.7042 6.73617 11.8187 6.57225 11.8868C6.39675 11.9655 6.18225 12.0052 5.92875 12.0052C5.73825 12.0052 5.57175 11.9827 5.43 11.9377C5.29939 11.8986 5.17764 11.8344 5.0715 11.7487C4.97993 11.6714 4.9058 11.5756 4.854 11.4675ZM2.64525 8.949H1.9755L1.3575 10.0275H1.3305L0.7065 8.949H0.009L0.92925 10.4362L0 11.9482H0.64575L1.2855 10.887H1.31175L1.94925 11.9482H2.63025L1.68975 10.455L2.64525 8.949ZM4.6905 11.4427H3.41775V8.949H2.82525V11.949H4.6905V11.4427Z" fill="#21272A"/>
  </g>
  <defs>
    <clipPath id="clip0_229_3644">
      <rect width="12" height="12" fill="white"/>
    </clipPath>
  </defs>
</svg>