<svg xmlns="http://www.w3.org/2000/svg" width="13" height="13" viewBox="0 0 13 13" fill="none">
<g clip-path="url(#clip0_229_3632)">
<path d="M1.89583 12.9987H10.0208C10.5244 12.9973 11.0069 12.7961 11.3623 12.4393C11.7177 12.0826 11.9171 11.5994 11.9167 11.0958V7.01328C11.9167 6.86962 11.8596 6.73185 11.758 6.63027C11.6564 6.52868 11.5187 6.47161 11.375 6.47161C11.2313 6.47161 11.0936 6.52868 10.992 6.63027C10.8904 6.73185 10.8333 6.86962 10.8333 7.01328V11.0958C10.8341 11.3122 10.7489 11.52 10.5966 11.6736C10.4443 11.8273 10.2372 11.9142 10.0208 11.9154H1.89583C1.67948 11.9142 1.47242 11.8273 1.32009 11.6736C1.16776 11.52 1.08261 11.3122 1.08333 11.0958V2.98491C1.08261 2.76855 1.16776 2.56074 1.32009 2.4071C1.47242 2.25345 1.67948 2.16651 1.89583 2.16536H5.95833C6.10199 2.16536 6.23977 2.1083 6.34135 2.00671C6.44293 1.90513 6.5 1.76736 6.5 1.6237C6.5 1.48004 6.44293 1.34226 6.34135 1.24068C6.23977 1.1391 6.10199 1.08203 5.95833 1.08203H1.89583C1.39225 1.08347 0.909803 1.28463 0.554374 1.64138C0.198944 1.99813 -0.000431758 2.48132 7.02059e-07 2.98491V11.0958C-0.000431758 11.5994 0.198944 12.0826 0.554374 12.4393C0.909803 12.7961 1.39225 12.9973 1.89583 12.9987Z" fill="#21272A"/>
<path d="M5.12143 5.71177L4.69406 7.66936C4.67471 7.75815 4.67802 7.85038 4.70367 7.93756C4.72932 8.02474 4.7765 8.10406 4.84085 8.16823C4.90608 8.23078 4.98544 8.27669 5.07219 8.30205C5.15894 8.32741 5.25052 8.33149 5.33918 8.31394L7.29243 7.88548C7.39385 7.86321 7.48673 7.81226 7.56001 7.73869L12.4968 2.80194C12.6477 2.65104 12.7674 2.47189 12.8491 2.27472C12.9308 2.07754 12.9728 1.86621 12.9728 1.65279C12.9728 1.43937 12.9308 1.22804 12.8491 1.03087C12.7674 0.833696 12.6477 0.654545 12.4968 0.503647C12.1874 0.20797 11.7759 0.0429688 11.3479 0.0429688C10.9199 0.0429687 10.5084 0.20797 10.199 0.503647L5.26985 5.44527C5.19587 5.51805 5.14435 5.61055 5.12143 5.71177ZM10.9649 1.27011C11.068 1.17138 11.2052 1.11627 11.3479 1.11627C11.4906 1.11627 11.6278 1.17138 11.7308 1.27011C11.8311 1.37228 11.8872 1.50968 11.8872 1.65279C11.8872 1.7959 11.8311 1.93331 11.7308 2.03548L11.3479 2.41844L10.582 1.65252L10.9649 1.27011ZM6.1441 6.09852L9.81335 2.42006L10.5717 3.18219L6.90081 6.86173L5.92851 7.07515L6.1441 6.09852Z" fill="#21272A"/>
</g>
<defs>
<clipPath id="clip0_229_3632">
<rect width="13" height="13" fill="white"/>
</clipPath>
</defs>
</svg>