 <svg width="120" height="49" viewBox="0 0 120 49" fill="none" xmlns="http://www.w3.org/2000/svg">
<path d="M39.8036 21.398C39.8036 19.3508 37.8185 17.1791 34.3769 17.1791C30.5105 17.1791 26.2697 20.0096 25.6133 25.6657C24.9508 31.384 28.511 33.9107 32.0881 33.9107C35.664 33.9107 37.5465 32.5174 39.4583 30.6496C37.8076 28.5706 35.6786 29.5381 35.276 29.7407C34.8307 29.9639 34.2463 30.2726 33.0592 30.2726C31.6733 30.2726 30.2677 29.6455 30.2677 27.0724C39.1276 26.2232 39.8036 23.4464 39.8036 21.398ZM35.4127 21.7409C35.3553 22.3716 35.0966 23.4635 30.6131 24.0638C31.5586 20.7062 33.3618 20.4574 34.195 20.4574C34.9759 20.4574 35.4736 21.0625 35.4127 21.7409ZM20.4062 22.2862C20.4062 22.2862 18.5006 28.262 18.3529 28.7634C18.3017 28.262 16.9072 17.5281 16.9072 17.5281C13.6618 17.5281 11.9257 19.834 11.0107 22.2838C11.0107 22.2838 8.69265 28.2766 8.50478 28.778C8.49382 28.3083 8.14853 22.346 8.14853 22.346C7.9521 19.3496 5.2168 17.5354 3 17.5354L5.66578 33.7973C9.07088 33.7862 10.8936 31.484 11.855 29.0391C11.855 29.0391 13.8937 23.7515 13.9779 23.5112C13.9986 23.7405 15.4444 33.7973 15.4444 33.7973C18.8519 33.7973 20.6905 31.6415 21.68 29.2844L26.4613 17.5354C23.094 17.5354 21.3212 19.8352 20.4062 22.2862ZM52.3186 17.1572C50.2239 17.1572 48.6097 18.2955 47.2507 19.9779L47.2531 19.9657L48.461 10.1945C45.6719 10.1945 43.3929 12.6224 42.9598 16.2239L40.8382 33.6704C42.4474 33.6704 44.1518 33.2031 45.0716 32.0209C45.8952 33.0786 47.1189 33.9217 48.9306 33.9217C53.6339 33.9217 56.867 28.4547 56.867 23.322C56.867 18.6383 54.5879 17.1572 52.3186 17.1572ZM51.8868 25.5389C51.3988 28.4084 49.8042 30.3433 48.2596 30.3433C46.7029 30.3433 46.0453 29.6552 46.0453 29.6552C46.3356 27.1469 46.5284 25.6084 47.0957 24.2834C47.6618 22.9585 49.0002 20.8442 50.4007 20.8442C51.7623 20.8442 52.3748 22.6706 51.8868 25.5389ZM68.6574 17.5367H65.3645L65.3803 17.3646C65.6048 15.2149 66.1197 14.0864 67.7863 13.9131C68.9245 13.796 69.4394 13.2043 69.559 12.565C69.6529 12.0635 69.9713 10.2908 69.9713 10.2908C63.3661 10.253 61.2957 13.1042 60.7674 17.4378L60.7552 17.5354L60.6905 17.5379C59.6181 17.5379 58.4408 18.7518 58.2346 20.2939L58.1627 20.8612H60.3587L58.5152 36.1226L57.9565 38.8652L58.1833 38.8726C61.2664 38.7554 63.2502 36.3239 63.6882 32.7834L65.1278 20.8612H66.16C67.1702 20.8612 68.3572 19.8486 68.5769 18.1564L68.6574 17.5367ZM85.7453 17.2536C81.951 17.2536 78.375 20.0462 77.2755 24.4396C76.1775 28.8317 77.847 34.0181 83.4232 34.0181C89.0018 34.0181 92.2065 28.6121 92.2065 24.1236C92.2065 19.6326 89.1712 17.2536 85.7453 17.2536ZM87.2835 25.4083C87.087 27.4006 86.2088 30.4104 83.808 30.4104C81.3968 30.4104 81.7395 26.8784 81.9727 25.2021C82.2233 23.405 83.2327 20.8612 85.3815 20.8612C87.3225 20.8612 87.5055 23.1585 87.2835 25.4083ZM110.944 22.2862C110.944 22.2862 109.038 28.262 108.892 28.7634C108.839 28.262 107.445 17.5281 107.445 17.5281C104.2 17.5281 102.464 19.834 101.548 22.2838C101.548 22.2838 99.2318 28.2766 99.0435 28.778C99.0322 28.3083 98.6872 22.346 98.6872 22.346C98.4907 19.3496 95.754 17.5354 93.5385 17.5354L96.2032 33.7973C99.6082 33.7862 101.432 31.484 102.394 29.0391C102.394 29.0391 104.432 23.7515 104.516 23.5112C104.537 23.7405 105.982 33.7973 105.982 33.7973C109.39 33.7973 111.228 31.6415 112.217 29.2844L117 17.5354C113.632 17.5354 111.859 19.8352 110.944 22.2862ZM71.7563 10.2908L68.9917 32.5882L68.9843 32.5845L68.4231 35.3418L68.6488 35.3491C71.6257 35.3125 73.7376 32.7005 74.1353 29.4063L75.732 16.6082C76.2165 12.7102 73.8926 10.2908 71.7563 10.2908Z" fill="#21232A"/>
</svg>