<svg width="184" height="53" viewBox="0 0 184 53" fill="none" xmlns="http://www.w3.org/2000/svg">
<path d="M1.58559 17.93C59.5594 36.7528 135.883 48.06 182.47 1.23199C182.562 1.11012 182.697 1.02687 182.847 0.998604C182.997 0.970335 183.153 0.99904 183.283 1.07903C183.413 1.15902 183.509 1.28461 183.552 1.43139C183.595 1.57817 183.581 1.73572 183.514 1.87319C155.211 69.2998 48.8555 62.6048 0.967445 19.0023C0.825243 18.9203 0.721417 18.7851 0.678825 18.6266C0.636232 18.4681 0.658309 18.2992 0.740279 18.157C0.822238 18.0148 0.957374 17.911 1.11589 17.8684C1.2744 17.8258 1.44338 17.848 1.58559 17.93Z" fill="#091F8E"/>
</svg>