<?xml version="1.0" encoding="UTF-8"?>
<!DOCTYPE svg PUBLIC "-//W3C//DTD SVG 1.1//EN" "http://www.w3.org/Graphics/SVG/1.1/DTD/svg11.dtd">
<svg xmlns="http://www.w3.org/2000/svg" version="1.1" width="90px" height="90px" style="shape-rendering:geometricPrecision; text-rendering:geometricPrecision; image-rendering:optimizeQuality; fill-rule:evenodd; clip-rule:evenodd" xmlns:xlink="http://www.w3.org/1999/xlink">
<g><path style="opacity:0.881" fill="#fefffe" d="M 25.5,21.5 C 31.8129,27.4784 38.1462,33.4784 44.5,39.5C 50.8188,33.6815 56.9855,27.6815 63,21.5C 64.5,23 66,24.5 67.5,26C 61.3185,32.0145 55.3185,38.1812 49.5,44.5C 55.3185,50.8188 61.3185,56.9855 67.5,63C 66,64.5 64.5,66 63,67.5C 56.9855,61.3185 50.8188,55.3185 44.5,49.5C 38.1812,55.3185 32.0145,61.3185 26,67.5C 24.5,66 23,64.5 21.5,63C 27.6815,56.9855 33.6815,50.8188 39.5,44.5C 33.6815,38.1812 27.6815,32.0145 21.5,26C 23.0414,24.6288 24.3747,23.1288 25.5,21.5 Z"/></g>
</svg>
