 <svg width="86" height="133" viewBox="0 0 86 133" fill="none" xmlns="http://www.w3.org/2000/svg">
<path opacity="0.1" d="M65.0917 112.882C72.5003 105.211 78.0957 95.9748 81.4671 85.8526C84.8385 75.7304 85.9001 64.9787 84.5743 54.3871C83.1655 43.6259 78.8871 33.4396 72.1882 24.8977C65.4893 16.3559 56.6172 9.77363 46.5035 5.84227C34.9931 1.02506 22.3399 -0.362396 10.0673 1.84689C-2.20537 4.05617 -13.5743 9.76816 -22.6709 18.295C-24.7069 20.7212 -25.7188 23.8457 -25.4923 27.0075C-25.2658 30.1693 -23.8188 33.1202 -21.4574 35.2359C-19.0961 37.3515 -16.0057 38.4659 -12.8401 38.3433C-9.67456 38.2206 -6.68217 36.8706 -4.49621 34.5787C0.594036 30.1611 6.74251 27.139 13.3504 25.8071C19.9584 24.4752 26.8004 24.8788 33.2099 26.9785C39.8362 28.6238 45.8685 32.0993 50.6184 37.0086C55.3683 41.9179 58.6443 48.063 60.0724 54.7423C61.313 61.4864 61.0536 68.4196 59.3125 75.0487C57.5713 81.6779 54.3913 87.8402 49.9985 93.0974C45.5871 98.4781 39.8806 102.648 33.4144 105.215C26.9482 107.783 19.9343 108.665 13.0307 107.777C4.73056 106.977 -3.25449 104.178 -10.2416 99.6186C-17.2288 95.0594 -23.0101 88.8758 -27.0909 81.597C-28.8641 78.8972 -31.6263 77.002 -34.7816 76.3203C-37.937 75.6386 -41.2325 76.225 -43.9568 77.9532C-46.6138 79.757 -48.4728 82.5166 -49.1477 85.6584C-49.8225 88.8001 -49.2612 92.0824 -47.5804 94.8234C-25.6736 134.156 32.302 145.905 65.0917 112.882Z" fill="#091F8E"/>
</svg>