<svg width="55" height="223" viewBox="0 0 55 223" fill="none" xmlns="http://www.w3.org/2000/svg">
<path d="M51.7348 221.772C13.7388 163.92 -28.4789 55.2076 26.8787 0.684867C27.0906 0.510253 27.3548 0.411315 27.6293 0.404118C27.9038 0.39692 28.1729 0.481752 28.3937 0.645019C28.6145 0.808286 28.7744 1.04066 28.848 1.30524C28.9216 1.56981 28.9045 1.85138 28.7996 2.10519C-4.20224 67.3028 37.1475 153.034 54.0039 220.653C54.1522 220.954 54.1749 221.302 54.0671 221.62C53.9592 221.937 53.7296 222.199 53.4287 222.347C53.1278 222.496 52.7803 222.518 52.4627 222.411C52.145 222.303 51.8831 222.073 51.7348 221.772Z" fill="#091F8E"/>
</svg>
