<svg width="478" height="800" viewBox="0 0 478 800" fill="none" xmlns="http://www.w3.org/2000/svg">
<path d="M997.156 411.739C1047.86 374.004 862.424 367.468 804.582 310.246C804.582 310.246 803.132 308.485 801.456 309.584C799.78 310.683 800.975 312.702 800.975 312.702C828.677 358.857 885.523 380.298 934.365 397.776C683.629 422.47 561.75 237.114 378.026 22.939C340.102 -21.2706 316.726 9.2492 311.314 40.7834C307.361 116.35 345.259 196.525 362.866 269.157C386.874 358.101 427.219 458.503 440.046 549.995C444.37 580.874 428.676 593.664 403.484 567.87C355.644 518.972 305.921 452.011 261.629 399.674C236.706 369.764 213.1 337.409 183.669 310.742C163.402 289.901 132.923 298.072 135.455 329.396C148.726 418.692 280.572 653.225 236.463 749.253C179.285 873.502 -32.784 781.267 -100.854 700.751C-101.291 700.236 -101.913 699.913 -102.586 699.853C-103.259 699.793 -103.929 700 -104.451 700.43C-105.192 701.04 -105.66 701.921 -105.753 702.877C-105.845 703.833 -105.554 704.786 -104.943 705.528C-23.3183 814.058 244.624 907.701 270.713 725.212C284.543 628.087 203.621 486.178 177.872 373.705C176.478 367.627 172.886 348.344 188.139 368.625C252.921 454.946 316.16 543.665 393.874 619.426C466.942 686.815 496.399 612.244 482.864 542.733C465.283 411.752 408.786 261.217 381.249 131.024C376.867 110.328 382.051 102.209 398.194 121.006C554.884 303.678 715.612 459.468 925.319 415.787C883.262 444.477 845.314 491.084 844.47 544.054C844.47 544.054 844.151 546.287 845.924 546.844C847.697 547.401 848.608 545.431 848.608 545.431C886.554 485.779 956.793 441.801 997.156 411.739ZM170.294 325.891C170.585 325.276 170.418 325.414 170.294 325.891V325.891ZM444.377 598.653C444.966 598.684 444.854 598.776 444.377 598.653V598.653Z" fill="#091F8E"/>
</svg>